{
  "accessors": [
    {
      "bufferView": 2,
      "componentType": 5126,
      "count": 3324,
      "max": [
        18.724327087402344,
        30.154769897460938,
        20.518152236938477
      ],
      "min": [
        -20.587289810180664,
        -0.12207174301147461,
        -19.82324981689453
      ],
      "type": "VEC3"
    },
    {
      "bufferView": 2,
      "byteOffset": 39888,
      "componentType": 5126,
      "count": 3324,
      "max": [
        0.9996442198753357,
        0.9988867044448853,
        1.0
      ],
      "min": [
        -0.9992815256118774,
        -0.9976587891578674,
        -0.9846946001052856
      ],
      "type": "VEC3"
    },
    {
      "bufferView": 1,
      "componentType": 5126,
      "count": 3324,
      "max": [
        0.995764434337616,
        0.9942811727523804
      ],
      "min": [
        0.004742257297039032,
        0.01980370283126831
      ],
      "type": "VEC2"
    },
    {
      "bufferView": 1,
      "byteOffset": 26592,
      "componentType": 5126,
      "count": 3324,
      "max": [
        0.995764434337616,
        0.9942811727523804
      ],
      "min": [
        0.004742257297039032,
        0.01980370283126831
      ],
      "type": "VEC2"
    },
    {
      "bufferView": 1,
      "byteOffset": 53184,
      "componentType": 5126,
      "count": 3324,
      "max": [
        0.995764434337616,
        0.9942811727523804
      ],
      "min": [
        0.004742257297039032,
        0.01980370283126831
      ],
      "type": "VEC2"
    },
    {
      "bufferView": 0,
      "componentType": 5125,
      "count": 3336,
      "type": "SCALAR"
    },
    {
      "bufferView": 2,
      "byteOffset": 79776,
      "componentType": 5126,
      "count": 9522,
      "max": [
        16.939537048339844,
        24.517723083496094,
        17.640785217285156
      ],
      "min": [
        -14.786855697631836,
        -0.053261470049619675,
        -17.432327270507813
      ],
      "type": "VEC3"
    },
    {
      "bufferView": 2,
      "byteOffset": 194040,
      "componentType": 5126,
      "count": 9522,
      "max": [
        0.9999136924743652,
        0.9989240169525146,
        0.9998473525047302
      ],
      "min": [
        -0.9987525939941406,
        -0.9997106194496155,
        -0.999897301197052
      ],
      "type": "VEC3"
    },
    {
      "bufferView": 1,
      "byteOffset": 79776,
      "componentType": 5126,
      "count": 9522,
      "max": [
        0.9933594465255737,
        0.9918111562728882
      ],
      "min": [
        0.007515743374824524,
        0.008641242980957031
      ],
      "type": "VEC2"
    },
    {
      "bufferView": 1,
      "byteOffset": 155952,
      "componentType": 5126,
      "count": 9522,
      "max": [
        0.9933594465255737,
        0.9918111562728882
      ],
      "min": [
        0.007515743374824524,
        0.008641242980957031
      ],
      "type": "VEC2"
    },
    {
      "bufferView": 0,
      "byteOffset": 13344,
      "componentType": 5125,
      "count": 9522,
      "type": "SCALAR"
    },
    {
      "bufferView": 2,
      "byteOffset": 308304,
      "componentType": 5126,
      "count": 16772,
      "max": [
        19.008346557617188,
        25.876773834228516,
        19.089521408081055
      ],
      "min": [
        -16.440216064453125,
        7.234292030334473,
        -19.553295135498047
      ],
      "type": "VEC3"
    },
    {
      "bufferView": 2,
      "byteOffset": 509568,
      "componentType": 5126,
      "count": 16772,
      "max": [
        0.9998546242713928,
        0.998845100402832,
        0.9998979568481445
      ],
      "min": [
        -0.9997544288635254,
        -0.9999865293502808,
        -0.9997591972351074
      ],
      "type": "VEC3"
    },
    {
      "bufferView": 1,
      "byteOffset": 232128,
      "componentType": 5126,
      "count": 16772,
      "max": [
        0.9902891516685486,
        0.9902856349945068
      ],
      "min": [
        0.00969250500202179,
        0.010728001594543457
      ],
      "type": "VEC2"
    },
    {
      "bufferView": 1,
      "byteOffset": 366304,
      "componentType": 5126,
      "count": 16772,
      "max": [
        0.9902891516685486,
        0.9902856349945068
      ],
      "min": [
        0.00969250500202179,
        0.010728001594543457
      ],
      "type": "VEC2"
    },
    {
      "bufferView": 0,
      "byteOffset": 51432,
      "componentType": 5125,
      "count": 16938,
      "type": "SCALAR"
    }
  ],
  "asset": {
    "extras": {
      "author": "endlessvoidmc (https://sketchfab.com/endlessvoidmc)",
      "license": "CC-BY-4.0 (http://creativecommons.org/licenses/by/4.0/)",
      "source": "https://sketchfab.com/3d-models/tree-mesh-full-texture-caee7cbfada44a9ca78543a7e86a335c",
      "title": "Tree Mesh full texture"
    },
    "generator": "Sketchfab-15.12.0",
    "version": "2.0"
  },
  "bufferViews": [
    {
      "buffer": 0,
      "byteLength": 119184,
      "name": "floatBufferViews",
      "target": 34963
    },
    {
      "buffer": 0,
      "byteLength": 500480,
      "byteOffset": 119184,
      "byteStride": 8,
      "name": "floatBufferViews",
      "target": 34962
    },
    {
      "buffer": 0,
      "byteLength": 710832,
      "byteOffset": 619664,
      "byteStride": 12,
      "name": "floatBufferViews",
      "target": 34962
    }
  ],
  "buffers": [
    {
      "byteLength": 1330496,
      "uri": "scene.bin"
    }
  ],
  "images": [
    {
      "uri": "textures/Material_0.001_baseColor.png"
    },
    {
      "uri": "textures/Material_0.001_metallicRoughness.png"
    },
    {
      "uri": "textures/Material_0.001_emissive.png"
    },
    {
      "uri": "textures/Material_1.001_baseColor.png"
    },
    {
      "uri": "textures/Material_1.001_metallicRoughness.png"
    },
    {
      "uri": "textures/Material_1.001_emissive.png"
    },
    {
      "uri": "textures/Material_2.001_metallicRoughness.png"
    },
    {
      "uri": "textures/Material_2.001_emissive.png"
    }
  ],
  "materials": [
    {
      "alphaMode": "MASK",
      "doubleSided": true,
      "emissiveFactor": [
        1.0,
        1.0,
        1.0
      ],
      "emissiveTexture": {
        "index": 2
      },
      "name": "Material_0.001",
      "occlusionTexture": {
        "index": 1
      },
      "pbrMetallicRoughness": {
        "baseColorTexture": {
          "index": 0
        },
        "metallicRoughnessTexture": {
          "index": 1
        }
      }
    },
    {
      "doubleSided": true,
      "emissiveFactor": [
        1.0,
        1.0,
        1.0
      ],
      "emissiveTexture": {
        "index": 5
      },
      "name": "Material_1.001",
      "occlusionTexture": {
        "index": 4
      },
      "pbrMetallicRoughness": {
        "baseColorTexture": {
          "index": 3
        },
        "metallicRoughnessTexture": {
          "index": 4
        }
      }
    },
    {
      "doubleSided": true,
      "emissiveFactor": [
        1.0,
        1.0,
        1.0
      ],
      "emissiveTexture": {
        "index": 7
      },
      "name": "Material_2.001",
      "occlusionTexture": {
        "index": 6
      },
      "pbrMetallicRoughness": {
        "baseColorTexture": {
          "index": 3
        },
        "metallicRoughnessTexture": {
          "index": 6
        }
      }
    }
  ],
  "meshes": [
    {
      "name": "Object_0",
      "primitives": [
        {
          "attributes": {
            "NORMAL": 1,
            "POSITION": 0,
            "TEXCOORD_0": 2,
            "TEXCOORD_1": 3,
            "TEXCOORD_2": 4
          },
          "indices": 5,
          "material": 0,
          "mode": 4
        }
      ]
    },
    {
      "name": "Object_1",
      "primitives": [
        {
          "attributes": {
            "NORMAL": 7,
            "POSITION": 6,
            "TEXCOORD_0": 8,
            "TEXCOORD_1": 9
          },
          "indices": 10,
          "material": 1,
          "mode": 4
        }
      ]
    },
    {
      "name": "Object_2",
      "primitives": [
        {
          "attributes": {
            "NORMAL": 12,
            "POSITION": 11,
            "TEXCOORD_0": 13,
            "TEXCOORD_1": 14
          },
          "indices": 15,
          "material": 2,
          "mode": 4
        }
      ]
    }
  ],
  "nodes": [
    {
      "children": [
        1
      ],
      "matrix": [
        1.0,
        0.0,
        0.0,
        0.0,
        0.0,
        2.220446049250313e-16,
        -1.0,
        0.0,
        0.0,
        1.0,
        2.220446049250313e-16,
        0.0,
        0.0,
        0.0,
        0.0,
        1.0
      ],
      "name": "Sketchfab_model"
    },
    {
      "children": [
        2
      ],
      "name": "root"
    },
    {
      "children": [
        3
      ],
      "matrix": [
        1.0,
        0.0,
        0.0,
        0.0,
        0.0,
        2.220446049250313e-16,
        1.0,
        0.0,
        0.0,
        -1.0,
        2.220446049250313e-16,
        0.0,
        0.0,
        0.0,
        0.0,
        1.0
      ],
      "name": "GLTF_SceneRootNode"
    },
    {
      "children": [
        4
      ],
      "matrix": [
        0.5778976082801819,
        0.0,
        0.0,
        0.0,
        0.0,
        0.7218127250671387,
        0.0,
        0.0,
        0.0,
        0.0,
        0.7454688549041748,
        0.0,
        0.07664468884468079,
        11.670877456665039,
        0.0,
        1.0
      ],
      "name": "RootNode.001_6"
    },
    {
      "children": [
        5,
        7,
        9
      ],
      "name": "Tree_with_Falling_Leaves.002_5"
    },
    {
      "children": [
        6
      ],
      "name": "Mesh_0.001_2"
    },
    {
      "mesh": 0,
      "name": "Object_6"
    },
    {
      "children": [
        8
      ],
      "matrix": [
        1.0,
        0.0,
        0.0,
        0.0,
        0.0,
        1.7883371114730835,
        0.0,
        0.0,
        0.0,
        0.0,
        1.0,
        0.0,
        0.0,
        -15.45191478729248,
        0.0,
        1.0
      ],
      "name": "Mesh_1.001_3"
    },
    {
      "mesh": 1,
      "name": "Object_8"
    },
    {
      "children": [
        10
      ],
      "name": "Mesh_2.001_4"
    },
    {
      "mesh": 2,
      "name": "Object_10"
    }
  ],
  "samplers": [
    {
      "magFilter": 9729,
      "minFilter": 9987,
      "wrapS": 10497,
      "wrapT": 10497
    }
  ],
  "scene": 0,
  "scenes": [
    {
      "name": "Sketchfab_Scene",
      "nodes": [
        0
      ]
    }
  ],
  "textures": [
    {
      "sampler": 0,
      "source": 0
    },
    {
      "sampler": 0,
      "source": 1
    },
    {
      "sampler": 0,
      "source": 2
    },
    {
      "sampler": 0,
      "source": 3
    },
    {
      "sampler": 0,
      "source": 4
    },
    {
      "sampler": 0,
      "source": 5
    },
    {
      "sampler": 0,
      "source": 6
    },
    {
      "sampler": 0,
      "source": 7
    }
  ]
}
